<svg width="24" height="24" viewBox="0 0 24 24" fill="none" xmlns="http://www.w3.org/2000/svg">
<path d="M2.14648 12.3535L9.64648 19.8535C9.84181 20.0488 10.1582 20.0488 10.3535 19.8535C10.5488 19.6582 10.5488 19.3418 10.3535 19.1465L3.707 12.5L20.5 12.5C20.7764 12.5 21 12.2764 21 12C21 11.7236 20.7764 11.5 20.5 11.5L3.707 11.5L10.3535 4.85352C10.5488 4.65819 10.5488 4.34179 10.3535 4.14651C10.2559 4.04887 10.1279 4.00002 9.99997 4.00002C9.87205 4.00002 9.74412 4.04887 9.64644 4.14651L2.14644 11.6465C1.95115 11.8418 1.95116 12.1582 2.14648 12.3535Z" fill="black" stroke="black" stroke-width="0.5"/>
</svg>
